<svg version="1.1" xmlns="http://www.w3.org/2000/svg" style="display: block;" viewBox="0 0 2048 1259" width="992" height="610" preserveAspectRatio="none">
<path transform="translate(0,0)" fill="rgb(70,167,100)" d="M 1071.86 84.7493 C 1089.95 84.7077 1108.04 84.4828 1126.13 84.0744 C 1136.58 83.7734 1149.09 82.6938 1159.28 83.3369 C 1160.32 86.8674 1160.57 89.2383 1161.04 92.829 C 1163.25 89.0796 1163.09 87.8848 1166.47 86.1768 C 1174.31 86.3723 1195.53 109.687 1202.05 116.41 C 1215.53 130.292 1235.77 140.827 1241.39 159.572 C 1241.97 161.586 1250.6 165.52 1251.67 167.548 C 1257.26 178.19 1281.85 207.627 1284.56 217.639 L 1288.88 219.288 C 1291.93 216.121 1293.81 215.56 1298.72 215.365 C 1319.49 214.539 1341.08 214.783 1361.86 214.71 C 1402.17 214.297 1442.48 214.276 1482.79 214.648 L 1721.83 214.886 C 1764.93 214.873 1810.05 215.764 1852.89 214.92 C 1882.75 215.727 1915.55 213.895 1944.89 215.59 C 1951.64 215.675 1957.52 214.882 1957.78 223.528 C 1958.97 263.734 1957.09 304.546 1958.09 344.689 L 1958.08 584.963 L 1957.3 678.577 C 1957.28 690.663 1956.71 713.548 1957.9 724.819 C 1957.97 759.93 1958.1 790.634 1956.58 825.773 C 1956.92 834.448 1957.16 839.344 1955.59 848.095 C 1939.25 852.901 1903.6 850.575 1884.62 850.279 C 1865.21 850.016 1845.79 849.893 1826.37 849.909 L 1450.16 849.728 C 1434.11 849.818 1296.95 852.058 1292.87 849.923 C 1291.32 849.109 1290.96 846.315 1290.47 844.689 C 1287.62 845.634 1270.38 858.829 1268.97 860.493 C 1265.08 862.329 1255.41 864.666 1250.5 866.319 C 1234.93 871.559 1220.01 876.42 1204.92 883.081 C 1197.81 882.932 1194 882.337 1187.82 885.815 C 1186.77 887.275 1186.02 888.181 1185.19 889.796 C 1173.01 890.213 1160.89 894.653 1150.81 894.914 C 1142.63 894.741 1124.44 897.783 1120.08 897.344 L 1120.53 895.606 C 1114.06 890.429 961.499 894.252 940.441 893.673 C 937.749 893.599 928.64 893.628 926.072 894.892 C 921.247 894.781 915.644 895.046 911.299 893.186 C 897.029 894.959 877.274 891.746 863.128 889.428 C 858.297 886.656 850.736 881.805 845.303 884.132 C 829.583 877.828 794.08 866.692 777.485 862.21 C 773.66 852.675 762.671 860.024 759.13 845.702 C 757.456 845.136 756.404 845.48 754.524 845.648 C 752.618 842.115 753.073 833.829 753.035 829.461 L 752.859 741.768 C 752.759 727.073 753.059 709.358 752.164 694.852 L 752.346 431.951 C 752.327 411.566 750.485 229.348 753.768 221.268 L 758.407 217.524 C 758.497 217.145 758.574 216.763 758.677 216.387 C 763.69 198.223 841.381 123.434 857.843 107.215 C 863.442 101.699 870.86 91.4314 877.575 87.9636 C 881.159 86.1125 884.972 87.787 888.537 88.9087 L 890.002 84.9497 C 933.564 84.0932 978.135 85.7318 1021.78 85.0555 C 1036.4 84.8288 1057.9 85.7671 1071.86 84.7493 z M 758.407 217.524 L 753.768 221.268 C 750.485 229.348 752.327 411.566 752.346 431.951 L 752.164 694.852 C 753.059 709.358 752.759 727.073 752.859 741.768 L 753.035 829.461 C 753.073 833.829 752.618 842.115 754.524 845.648 C 756.404 845.48 757.456 845.136 759.13 845.702 C 762.671 860.024 773.66 852.675 777.485 862.21 C 794.08 866.692 829.583 877.828 845.303 884.132 C 850.736 881.805 858.297 886.656 863.128 889.428 C 877.274 891.746 897.029 894.959 911.299 893.186 C 915.644 895.046 921.247 894.781 926.072 894.892 C 928.64 893.628 937.749 893.599 940.441 893.673 C 961.499 894.252 1114.06 890.429 1120.53 895.606 L 1120.08 897.344 C 1124.44 897.783 1142.63 894.741 1150.81 894.914 C 1160.89 894.653 1173.01 890.213 1185.19 889.796 C 1186.02 888.181 1186.77 887.275 1187.82 885.815 C 1194 882.337 1197.81 882.932 1204.92 883.081 C 1220.01 876.42 1234.93 871.559 1250.5 866.319 C 1255.41 864.666 1265.08 862.329 1268.97 860.493 C 1270.38 858.829 1287.62 845.634 1290.47 844.689 L 1291.19 841.03 C 1290.8 834.822 1291.12 825.349 1291.15 818.886 C 1291.33 672.731 1292.46 523.671 1290.86 377.605 C 1292.88 335.028 1289.15 289.283 1290.85 246.417 C 1291.06 241.195 1291.68 221.701 1288.88 219.288 L 1284.56 217.639 C 1281.85 207.627 1257.26 178.19 1251.67 167.548 C 1250.6 165.52 1241.97 161.586 1241.39 159.572 C 1235.77 140.827 1215.53 130.292 1202.05 116.41 C 1195.53 109.687 1174.31 86.3723 1166.47 86.1768 C 1163.09 87.8848 1163.25 89.0796 1161.04 92.829 C 1160.57 89.2383 1160.32 86.8674 1159.28 83.3369 C 1149.09 82.6938 1136.58 83.7734 1126.13 84.0744 C 1108.04 84.4828 1089.95 84.7077 1071.86 84.7493 C 1057.9 85.7671 1036.4 84.8288 1021.78 85.0555 C 978.135 85.7318 933.564 84.0932 890.002 84.9497 L 888.537 88.9087 C 884.972 87.787 881.159 86.1125 877.575 87.9636 C 870.86 91.4314 863.442 101.699 857.843 107.215 C 841.381 123.434 763.69 198.223 758.677 216.387 C 758.574 216.763 758.497 217.145 758.407 217.524 z M 1526.25 386.066 C 1534.58 384.715 1535.74 377.101 1535.64 369.266 C 1535.24 337.931 1535.77 306.013 1534.03 274.785 C 1533.75 269.848 1515.37 271.147 1511.22 271.37 C 1507.57 272.2 1503.41 272.677 1500.85 275.269 C 1497.53 282.663 1498.79 371.573 1500.18 384.797 C 1510.47 386.003 1515.91 386.165 1526.25 386.066 z M 1392.5 795.045 L 1401.2 793.329 C 1404.27 761.681 1400.4 726.545 1401.82 694.523 C 1402.05 689.403 1402.1 683.055 1401.76 678.005 C 1394.86 676.978 1385.71 675.424 1378.88 676.278 C 1375.46 676.908 1372.55 676.97 1370.22 679.328 C 1366.64 689.66 1368.01 779.901 1370.08 793.516 C 1378.09 794.96 1384.2 796.007 1392.5 795.045 z M 1560.54 384.524 C 1569.41 385.696 1573.87 386.238 1582.76 386.058 C 1586.72 385.23 1589.82 384.75 1593.52 383.061 C 1595.6 372.105 1594.93 353.501 1594.95 341.643 L 1595.03 274.373 C 1586.93 272.87 1582.6 271.965 1574.18 272.277 C 1569.9 272.981 1564.97 273.673 1560.81 274.635 C 1560.14 289.878 1560.85 306.084 1560.68 321.505 C 1560.45 341.559 1559.1 364.495 1560.54 384.524 z M 1900.64 584.626 C 1906.17 579.001 1903.98 498.423 1903.88 485.78 C 1903.84 482.207 1903.69 478.636 1903.42 475.072 C 1891.46 473.713 1884.75 473.389 1872.61 474.299 C 1869.98 476.716 1869.54 478.3 1869.38 481.905 C 1868.81 495.45 1866.1 576.196 1871.65 582.683 C 1873.83 585.232 1880.61 585.168 1883.74 585.253 C 1889.3 585.404 1895.11 585.157 1900.64 584.626 z M 1894.57 789.914 L 1904.03 785.033 L 1903.67 681.572 C 1892.97 680.25 1887.58 679.417 1876.75 680.309 C 1873.46 681.326 1872.06 681.4 1869.94 684.068 C 1864.85 697.102 1871.32 758.272 1869.13 774.864 C 1868.55 779.298 1870.65 789.062 1876.15 790.073 C 1882.13 791.174 1888.56 791.56 1894.57 789.914 z M 1584.57 792.866 C 1588.42 790.467 1594.06 787.06 1594.65 782.328 C 1595.88 772.608 1595.03 760.829 1595.1 751.049 C 1595.26 728.33 1594.04 703.922 1596.02 681.434 C 1584.82 678.241 1582.35 677.559 1570.39 678.182 C 1566.97 679.466 1563.29 680.436 1560.97 683.2 C 1559.12 687.421 1560.56 711.267 1561.15 717.678 C 1563.16 739.651 1559.77 765.483 1562.13 786.932 C 1568.07 794.314 1575.93 793.62 1584.57 792.866 z M 1810.09 474.003 C 1807.8 490.176 1807.78 569.017 1810.97 584.8 C 1819.27 585.06 1830.83 586.164 1838.46 583.338 C 1839.78 573.63 1839.87 563.785 1839.85 553.998 C 1839.79 527.847 1841.08 501.362 1838.68 475.306 C 1827.75 473.183 1821.2 473.332 1810.09 474.003 z M 1653.7 550.301 C 1654.08 536.542 1654.36 519.947 1653.77 506.312 C 1654.07 495.213 1655.34 485.942 1654.47 474.7 C 1641.68 472.866 1635.14 472.046 1622.89 475.831 C 1621.86 483.334 1621.9 489.157 1621.82 496.695 C 1622.16 510.913 1622.02 524.19 1621.65 538.424 C 1621.45 545.832 1620.87 559.941 1621.89 567.021 C 1621.51 573.677 1620.9 579.277 1625.36 584.971 C 1630.94 592.099 1645.15 592.288 1651.14 585.901 C 1656.31 580.397 1653.98 558.304 1653.7 550.301 z M 1782.77 474.528 C 1776.77 473.969 1756.99 471.22 1751.86 474.737 C 1749.22 476.547 1751.58 483.394 1752.03 487 C 1754.62 507.938 1752.57 525.979 1751.1 546.745 C 1749.01 556.871 1749.99 574.573 1750.75 585.048 C 1762.38 585.47 1769.76 586.115 1781.21 583.555 C 1781.73 578.36 1782.49 572.44 1782.56 567.28 C 1781.53 539.727 1782.83 503.15 1782.77 474.528 z M 1653.8 680.192 C 1644.1 677.841 1638.52 676.92 1629.11 680.073 C 1627.2 680.98 1622.45 682.778 1622.65 685.052 C 1624.29 704.346 1617.99 773.335 1624.03 788.036 C 1624.15 788.201 1624.27 788.372 1624.4 788.531 C 1627.43 792.178 1631.2 794.362 1636.01 794.644 C 1639.97 794.877 1647.79 794.411 1650.68 791.364 C 1656.2 785.564 1654.36 693.881 1653.8 680.192 z M 1387.07 386.165 C 1391.77 385.772 1396.04 385.496 1400.68 384.585 C 1402.96 368.868 1401.96 340.701 1401.88 323.631 C 1401.82 308.25 1402.47 287.413 1401.73 272.672 C 1394 271.889 1388.73 271.149 1380.93 272.63 C 1377.33 272.938 1372.86 273.191 1369.35 273.651 C 1367.23 293.672 1368.57 318.936 1368.57 339.224 C 1368.57 352.15 1367.85 371.85 1369.36 384.134 C 1374.72 384.917 1381.79 386.181 1387.07 386.165 z M 1810.72 384.079 C 1820.37 385.096 1829.06 385.668 1838.54 382.587 C 1841.1 370.615 1839.53 361.884 1839.38 349.703 C 1839.29 343.151 1840.06 334.236 1839.75 328.009 C 1838.78 308.239 1838.25 296.031 1841.18 276.242 C 1829 273.511 1823.78 273.576 1811.22 273.974 C 1808.38 284.334 1808.58 371.47 1810.72 384.079 z M 1499.91 577.215 C 1499.99 580.464 1499.66 582.417 1501.5 585.023 C 1507.06 587.518 1528.26 588.043 1533.12 582.947 C 1537.22 568.969 1536.34 490.409 1533.43 475.112 C 1522.32 472.689 1512.19 473.92 1501.42 476.652 C 1499.24 486.547 1498.88 491.834 1498.87 501.696 C 1498.84 513.278 1498.22 569.662 1499.91 577.215 z M 1826.5 677.474 C 1822.34 677.561 1814.8 676.876 1811.76 680.056 C 1807.15 684.888 1808.57 771.023 1809.89 782.337 C 1810.27 785.617 1810.65 788.613 1812.35 791.501 C 1816.46 794.453 1822.33 794.27 1827.33 794.436 C 1837.38 792.497 1839.53 791.325 1839.79 780.203 C 1840.24 760.245 1839.52 740.197 1839.25 720.239 C 1839.06 710.157 1841.75 692.187 1840.5 683.121 C 1837.94 678.43 1831.46 677.529 1826.5 677.474 z M 1781.8 680.229 C 1769.56 676.98 1763.83 676.951 1751.31 677.113 C 1746.8 691.918 1750.09 763.226 1749.95 782.266 C 1749.93 784.397 1751.82 790.168 1752.65 792.414 C 1761.25 793.072 1767.69 794.451 1775.38 790.542 C 1778.04 788.535 1780.61 787.417 1780.9 784.092 C 1782.92 761.153 1782.1 737.055 1782.08 713.962 C 1782.07 705.189 1782.61 687.909 1781.8 680.229 z M 1500.49 788.408 C 1505.18 796.821 1527.49 797.177 1532.9 790.276 C 1535.5 779.37 1535.66 693.248 1533.65 681.126 C 1528.94 675.164 1502.4 671.909 1499.88 685.792 C 1498.22 695.627 1498.62 777.851 1500.49 788.408 z M 1627.11 274.339 C 1626.18 274.726 1624.15 275.208 1623.75 276.111 C 1620.52 283.409 1621.41 370.634 1622.38 383.831 C 1633.83 386.406 1638.01 386.425 1649.77 385.404 C 1651.82 384.452 1652.56 384.455 1653.31 382.177 C 1655.06 376.89 1654.98 286.761 1653.92 274.358 C 1644.79 273.569 1636.27 273.29 1627.11 274.339 z M 1568.46 475.216 C 1565.7 476.523 1562.45 477.281 1561.92 480.003 C 1560 489.905 1561.59 502.51 1561.38 512.625 C 1560.88 536.348 1558.75 561.108 1561.15 584.701 C 1571.1 586.034 1576.46 586.533 1586.76 585.32 C 1590.5 584.53 1590.72 585.067 1593.4 582.71 C 1595.81 572.887 1595.48 491.866 1594.76 477.705 C 1583.61 474.973 1580.2 474.105 1568.46 475.216 z M 1870.65 383.53 C 1879.59 385.156 1885.53 385.841 1894.71 384.705 C 1898.59 383.812 1899.23 384.294 1901.92 381.808 C 1904.83 371.142 1903.85 290.414 1903.92 274.849 C 1891.86 273.714 1884.78 273.301 1872.6 274.355 C 1870.7 276.506 1869.91 276.747 1870.08 280.004 C 1870.63 291.006 1873.61 307.666 1873.21 318.245 C 1872.16 346.168 1865.29 354.482 1870.65 383.53 z M 1388.23 585.957 L 1400.7 584.352 C 1402.11 561.75 1402.11 539.384 1401.97 516.758 C 1401.89 503.591 1402.34 488.741 1401.4 475.698 C 1391.33 472.758 1389.22 471.31 1378.68 472.357 C 1375.14 473.658 1372.64 474.178 1370.39 477.249 C 1367.46 485.427 1367.56 575.973 1370.36 583.921 C 1374.69 587.092 1382.76 586.156 1388.23 585.957 z M 1751.54 273.705 C 1748.53 286.649 1750.16 301.027 1750.11 314.515 C 1750.01 336.953 1747.01 362.451 1751.22 384.466 C 1762.92 385.443 1768.08 385.996 1779.78 383.141 C 1784.56 377.412 1782.17 290.264 1782.17 275.489 C 1771.35 274.373 1762.45 273.628 1751.54 273.705 z"/>
<path transform="translate(0,0)" fill="rgb(95,132,185)" d="M 1071.86 84.7493 C 1089.95 84.7077 1108.04 84.4828 1126.13 84.0744 C 1136.58 83.7734 1149.09 82.6938 1159.28 83.3369 C 1160.32 86.8674 1160.57 89.2383 1161.04 92.829 C 1163.25 89.0796 1163.09 87.8848 1166.47 86.1768 C 1174.31 86.3723 1195.53 109.687 1202.05 116.41 C 1215.53 130.292 1235.77 140.827 1241.39 159.572 C 1241.97 161.586 1250.6 165.52 1251.67 167.548 C 1257.26 178.19 1281.85 207.627 1284.56 217.639 L 1288.88 219.288 C 1291.68 221.701 1291.06 241.195 1290.85 246.417 C 1289.15 289.283 1292.88 335.028 1290.86 377.605 C 1292.46 523.671 1291.33 672.731 1291.15 818.886 C 1291.12 825.349 1290.8 834.822 1291.19 841.03 L 1290.47 844.689 C 1287.62 845.634 1270.38 858.829 1268.97 860.493 C 1265.08 862.329 1255.41 864.666 1250.5 866.319 C 1234.93 871.559 1220.01 876.42 1204.92 883.081 C 1197.81 882.932 1194 882.337 1187.82 885.815 C 1186.77 887.275 1186.02 888.181 1185.19 889.796 C 1173.01 890.213 1160.89 894.653 1150.81 894.914 C 1142.63 894.741 1124.44 897.783 1120.08 897.344 L 1120.53 895.606 C 1114.06 890.429 961.499 894.252 940.441 893.673 C 937.749 893.599 928.64 893.628 926.072 894.892 C 921.247 894.781 915.644 895.046 911.299 893.186 C 897.029 894.959 877.274 891.746 863.128 889.428 C 858.297 886.656 850.736 881.805 845.303 884.132 C 829.583 877.828 794.08 866.692 777.485 862.21 C 773.66 852.675 762.671 860.024 759.13 845.702 C 757.456 845.136 756.404 845.48 754.524 845.648 C 752.618 842.115 753.073 833.829 753.035 829.461 L 752.859 741.768 C 752.759 727.073 753.059 709.358 752.164 694.852 L 752.346 431.951 C 752.327 411.566 750.485 229.348 753.768 221.268 L 758.407 217.524 C 758.497 217.145 758.574 216.763 758.677 216.387 C 763.69 198.223 841.381 123.434 857.843 107.215 C 863.442 101.699 870.86 91.4314 877.575 87.9636 C 881.159 86.1125 884.972 87.787 888.537 88.9087 L 890.002 84.9497 C 933.564 84.0932 978.135 85.7318 1021.78 85.0555 C 1036.4 84.8288 1057.9 85.7671 1071.86 84.7493 z M 994.693 707.359 C 1000.77 702.363 997.963 692.223 997.029 684.85 C 992.332 684.244 986.075 683.249 981.47 683.021 C 980.001 690.139 979.616 693.113 979.104 700.318 C 980.814 703.39 982.908 706.904 984.327 710.07 L 994.693 707.359 z M 1053.98 703.254 L 1056.38 704.017 C 1059.5 704.494 1065.19 705.207 1068.02 706.062 C 1070.97 699.114 1069.88 683.914 1059.48 683.005 C 1051.15 686.57 1053.31 696.004 1053.98 703.254 z M 1097.59 709.381 C 1105.65 701.478 1103.57 695.421 1102.8 685.044 C 1098.27 684.298 1093.53 683.44 1088.98 682.958 C 1086.97 691.748 1082.99 706.649 1095.01 709.817 L 1097.59 709.381 z M 947.416 684.892 C 944.86 693.872 945.105 698.443 945.72 707.823 C 951.059 707.993 955.514 708.013 960.806 709.014 C 963.526 702.323 962.358 693.174 961.87 685.898 C 957.562 685.537 951.586 684.864 947.416 684.892 z M 1027.66 704.144 C 1040.98 689.771 1032.86 684.259 1016.81 683.007 C 1014.53 690.063 1009.53 702.793 1017.78 707.029 C 1021.59 707.036 1024.2 705.63 1027.66 704.144 z"/>
<path transform="translate(0,0)" fill="rgb(251,191,26)" d="M 758.407 217.524 C 758.497 217.145 758.574 216.763 758.677 216.387 C 763.69 198.223 841.381 123.434 857.843 107.215 C 863.442 101.699 870.86 91.4314 877.575 87.9636 C 881.159 86.1125 884.972 87.787 888.537 88.9087 C 890.622 115.076 890.165 146.329 890.409 173.045 C 890.88 221.545 891.089 270.047 891.036 318.549 L 891.934 714.646 L 891.946 830.209 C 891.991 847.554 891.383 873.497 892.773 890.421 C 897.858 891.129 906.562 892.071 911.299 893.186 C 897.029 894.959 877.274 891.746 863.128 889.428 C 858.297 886.656 850.736 881.805 845.303 884.132 C 829.583 877.828 794.08 866.692 777.485 862.21 C 773.66 852.675 762.671 860.024 759.13 845.702 C 757.456 845.136 756.404 845.48 754.524 845.648 C 752.618 842.115 753.073 833.829 753.035 829.461 L 752.859 741.768 C 752.759 727.073 753.059 709.358 752.164 694.852 L 752.346 431.951 C 752.327 411.566 750.485 229.348 753.768 221.268 L 758.407 217.524 z"/>
<path transform="translate(0,0)" fill="rgb(245,249,174)" d="M 758.407 217.524 C 759.9 225.749 758.945 259.58 758.771 269.099 C 758.174 296.722 757.933 324.352 758.046 351.982 L 758.867 740.012 C 758.848 748.368 759.261 845.472 759.13 845.702 C 757.456 845.136 756.404 845.48 754.524 845.648 C 752.618 842.115 753.073 833.829 753.035 829.461 L 752.859 741.768 C 752.759 727.073 753.059 709.358 752.164 694.852 L 752.346 431.951 C 752.327 411.566 750.485 229.348 753.768 221.268 L 758.407 217.524 z"/>
<path transform="translate(0,0)" fill="rgb(251,191,26)" d="M 1161.04 92.829 C 1163.25 89.0796 1163.09 87.8848 1166.47 86.1768 C 1174.31 86.3723 1195.53 109.687 1202.05 116.41 C 1215.53 130.292 1235.77 140.827 1241.39 159.572 C 1241.97 161.586 1250.6 165.52 1251.67 167.548 C 1257.26 178.19 1281.85 207.627 1284.56 217.639 L 1288.88 219.288 C 1291.68 221.701 1291.06 241.195 1290.85 246.417 C 1289.15 289.283 1292.88 335.028 1290.86 377.605 C 1292.46 523.671 1291.33 672.731 1291.15 818.886 C 1291.12 825.349 1290.8 834.822 1291.19 841.03 L 1290.47 844.689 C 1287.62 845.634 1270.38 858.829 1268.97 860.493 C 1265.08 862.329 1255.41 864.666 1250.5 866.319 C 1234.93 871.559 1220.01 876.42 1204.92 883.081 C 1197.81 882.932 1194 882.337 1187.82 885.815 C 1186.77 887.275 1186.02 888.181 1185.19 889.796 C 1173.01 890.213 1160.89 894.653 1150.81 894.914 C 1151.97 877.941 1151.21 852.085 1151.41 834.382 L 1152.45 686.325 L 1157.51 242.377 C 1157.93 206.745 1158.6 171.116 1159.51 135.492 C 1159.66 128.335 1159.77 97.15 1161.04 92.829 z"/>
<path transform="translate(0,0)" fill="rgb(252,228,123)" d="M 1286.04 378.681 C 1286.9 382.282 1287.24 388.274 1287.58 392.164 C 1289.21 389.332 1286.65 360.948 1287.43 354.898 L 1288.9 354.781 C 1289.62 364.834 1288.38 377.002 1289.21 386.979 L 1289.89 386.976 L 1290.86 377.605 C 1292.46 523.671 1291.33 672.731 1291.15 818.886 C 1291.12 825.349 1290.8 834.822 1291.19 841.03 C 1289.77 836.009 1285.72 833.923 1285.68 828.29 C 1285.53 810.735 1286.04 793.188 1286 775.625 L 1286.18 640.297 L 1286.12 472.576 C 1286.03 442.24 1285.11 408.767 1286.04 378.681 z"/>
<path transform="translate(0,0)" fill="rgb(245,249,174)" d="M 1284.56 217.639 L 1288.88 219.288 C 1291.68 221.701 1291.06 241.195 1290.85 246.417 C 1289.15 289.283 1292.88 335.028 1290.86 377.605 L 1289.89 386.976 L 1289.21 386.979 C 1288.38 377.002 1289.62 364.834 1288.9 354.781 L 1287.43 354.898 C 1286.65 360.948 1289.21 389.332 1287.58 392.164 C 1287.24 388.274 1286.9 382.282 1286.04 378.681 L 1285.24 261.013 C 1285.17 254.442 1283.91 221.623 1284.56 217.639 z"/>
<path transform="translate(0,0)" fill="rgb(95,132,185)" d="M 1022.8 478.657 C 987.525 489.681 951.665 444.029 952.178 411.893 C 952.502 391.666 958.015 370.973 972.359 355.956 C 986.575 341.073 1006.3 337.26 1026.04 337.734 C 1073.41 335.775 1097.54 369.518 1097.11 414.631 C 1096.82 445.907 1079.7 468.722 1047.84 475.705 C 1042.98 476.769 1037.26 477.449 1032.25 477.186 L 1022.8 478.657 z"/>
<path transform="translate(0,0)" fill="rgb(158,176,210)" d="M 1022.8 478.657 C 987.525 489.681 951.665 444.029 952.178 411.893 C 952.502 391.666 958.015 370.973 972.359 355.956 C 986.575 341.073 1006.3 337.26 1026.04 337.734 C 1073.41 335.775 1097.54 369.518 1097.11 414.631 C 1096.82 445.907 1079.7 468.722 1047.84 475.705 C 1042.98 476.769 1037.26 477.449 1032.25 477.186 L 1031.55 472.556 C 1038.58 475.659 1040.86 471.41 1046.8 469.99 C 1088.35 460.066 1097.48 416.076 1083.07 380.289 C 1068.53 344.169 1025.5 337.08 992.41 350.525 C 961.138 363.486 953.504 410.751 966.624 438.416 C 974.686 455.415 999.758 477.345 1019.66 473.409 L 1019.46 477.007 C 1021.52 478.715 1020.4 478.281 1022.8 478.657 z"/>
<path transform="translate(0,0)" fill="rgb(158,176,210)" d="M 1021.16 464.384 C 1018.02 464.283 1011.92 464.28 1009.04 463.387 C 982.806 455.238 966.948 426.058 973.117 399.757 C 974.432 400.867 970.873 425.047 978.361 434.53 C 981.667 436.009 980.253 435.91 983.666 434.965 C 980.222 426.424 981.201 413.04 981.338 403.589 C 982.302 433.403 982.676 442.72 1012.35 455.537 C 1015.83 457.039 1020.97 459.876 1023.16 463.17 L 1021.16 464.384 z"/>
<path transform="translate(0,0)" fill="rgb(208,213,223)" d="M 1021.16 464.384 L 1023.16 463.17 C 1027.87 466.302 1029.28 467.109 1031.55 472.556 L 1032.25 477.186 L 1022.8 478.657 C 1020.4 478.281 1021.52 478.715 1019.46 477.007 L 1019.66 473.409 C 1020.48 471.281 1020.86 466.823 1021.16 464.384 z"/>
<path transform="translate(0,0)" fill="rgb(208,213,223)" d="M 1009.63 391.41 L 1011.97 392.984 C 1015.46 399.091 1014.77 422.384 1016.12 432.189 C 1019.6 434.744 1026.08 438.154 1025.43 442.529 L 1021.18 444.466 C 999.626 442.542 998.879 405.778 1009.63 391.41 z"/>
<path transform="translate(0,0)" fill="rgb(208,213,223)" d="M 1030.94 392.408 C 1038.83 393.194 1041.21 396.441 1043.45 403.979 C 1045.29 410.215 1047.45 437.738 1044.75 442.678 C 1040.5 443.046 1039.14 442.996 1034.92 442.612 C 1031.59 438.738 1035.77 424.235 1034.96 418.613 C 1033.71 409.863 1032.15 401.166 1030.94 392.408 z"/>
<path transform="translate(0,0)" fill="rgb(240,238,240)" d="M 1018.14 375.932 C 1026.57 375.139 1033.39 377.566 1034.84 386.915 C 1033.66 390.107 1034.4 389.502 1032.05 391.269 C 1025.51 390.891 1016.96 391.854 1014.11 385.259 C 1014.35 381.275 1016.02 379.248 1018.14 375.932 z"/>
<path transform="translate(0,0)" fill="rgb(240,238,240)" d="M 1013.42 497.87 C 1016.7 497.632 1024.42 497.186 1027.36 497.904 C 1038.08 500.52 1036.21 517.973 1033.4 525.5 C 1007.13 533.158 1012.53 516.257 1013.42 497.87 z"/>
<path transform="translate(0,0)" fill="rgb(240,238,240)" d="M 980.769 497.355 C 985.731 497.102 993.156 496.398 997.552 498.544 C 1001.38 503.768 1001.69 520.504 997.572 525.797 C 989.614 526.886 986.68 526.657 978.648 525.746 C 978.504 518.785 978.494 503.671 980.769 497.355 z"/>
<path transform="translate(0,0)" fill="rgb(240,238,240)" d="M 1051.16 497.453 C 1053.52 497.301 1059.73 496.744 1061.9 497.147 C 1073.78 499.351 1070.05 518.788 1068.55 526.086 C 1060.52 526.807 1057.82 526.756 1049.91 526.017 C 1049.74 516.158 1050.45 507.296 1051.16 497.453 z"/>
<path transform="translate(0,0)" fill="rgb(158,176,210)" d="M 1060.93 507.512 C 1063.15 510.834 1062.14 515.069 1061.55 518.829 C 1059.59 514.079 1059.88 512.199 1060.93 507.512 z"/>
<path transform="translate(0,0)" fill="rgb(240,238,240)" d="M 1085.98 497.34 C 1091.76 496.924 1097.66 497.147 1103.46 497.253 C 1104.18 507.01 1103.95 516.813 1102.75 526.523 C 1096.11 526.866 1091.77 526.598 1085.22 526.171 C 1084.88 516.881 1085.56 506.702 1085.98 497.34 z"/>
<path transform="translate(0,0)" fill="rgb(240,238,240)" d="M 1016.27 289.148 C 1022.94 289.113 1025.76 289.57 1032.39 290.734 C 1033.53 297.042 1036.78 311.823 1032.75 316.77 C 1026.49 317.973 1021.41 317.972 1015.1 318.156 C 1013.61 308.735 1014.63 298.5 1016.27 289.148 z"/>
<path transform="translate(0,0)" fill="rgb(240,238,240)" d="M 1021.29 153.942 C 1018.22 153.509 1015.92 153.417 1014.89 150.084 C 1013.03 143.877 1013.93 137.172 1017.34 131.665 C 1019.65 127.979 1022.19 125.892 1026.49 124.974 C 1036.88 127.148 1035.7 139.262 1035.87 147.855 C 1033.06 156.476 1028.6 151.889 1021.29 153.942 z"/>
<path transform="translate(0,0)" fill="rgb(158,176,210)" d="M 1022.17 148.555 C 1021.81 144.136 1020.74 138.338 1022.87 134.772 C 1026.41 135.074 1026.07 135.646 1029.16 138.187 C 1028.73 141.669 1028.88 144.468 1026.52 146.814 L 1022.17 148.555 z"/>
<path transform="translate(0,0)" fill="rgb(240,238,240)" d="M 1029.16 138.187 C 1029.12 141.414 1028.56 146.213 1030.14 148.66 C 1033.34 149.418 1032.26 149.233 1035.87 147.855 C 1033.06 156.476 1028.6 151.889 1021.29 153.942 L 1022.17 148.555 L 1026.52 146.814 C 1028.88 144.468 1028.73 141.669 1029.16 138.187 z"/>
<path transform="translate(0,0)" fill="rgb(240,238,240)" d="M 985.47 125.936 C 1002.44 125.167 1003.55 137.196 999.486 151.228 C 999.124 152.478 997.418 152.531 996.135 152.873 C 981.202 154.873 977.4 155.466 980.629 138.212 C 981.668 132.658 981.867 130.444 985.47 125.936 z"/>
<path transform="translate(0,0)" fill="rgb(158,176,210)" d="M 987.133 133.217 C 994.274 135.19 993.576 141.746 993.681 147.716 C 989.846 148.037 990.824 148.482 987.748 147.023 C 985.797 143.633 986.817 137.376 987.133 133.217 z"/>
<path transform="translate(0,0)" fill="rgb(240,238,240)" d="M 981.434 289.752 C 994.023 289.534 1001.18 291.663 999.746 307.524 C 999.457 310.726 999.523 312.807 997.676 315.736 C 992.267 316.918 985.449 318.901 980.781 315.41 C 976.886 309.766 980.257 297.178 981.434 289.752 z"/>
<path transform="translate(0,0)" fill="rgb(240,238,240)" d="M 1089.26 126.197 C 1097.9 125.768 1105.47 125.972 1105.82 138.555 C 1105.93 142.737 1105.42 149.757 1102.26 152.633 C 1097.24 153.081 1091.25 153.014 1086.13 153.088 C 1085.19 143.564 1085.17 134.976 1089.26 126.197 z"/>
<path transform="translate(0,0)" fill="rgb(208,213,223)" d="M 1090.67 134.695 C 1092.95 135.397 1093.65 135.738 1095.79 136.815 C 1098 139.843 1097.69 144.525 1097.86 148.419 C 1091.48 145.424 1091.11 140.836 1090.67 134.695 z"/>
<path transform="translate(0,0)" fill="rgb(240,238,240)" d="M 952.632 125.819 C 960.59 126.01 960.586 127.519 964.711 134.294 C 965.164 139.301 966.33 145.922 964.521 150.392 C 961.639 153.488 962.439 152.584 957.716 153.657 C 948.828 153.412 942.843 152.36 944.578 139.549 C 945.309 134.151 947.818 128.756 952.632 125.819 z"/>
<path transform="translate(0,0)" fill="rgb(158,176,210)" d="M 952.683 135.253 C 957.03 136.338 956.872 136.21 959.316 138.95 C 960.243 142.309 959.444 144.199 958.645 147.62 C 954.636 147.822 955.771 148.335 952.823 146.514 C 951.261 143.15 952.244 139.151 952.683 135.253 z"/>
<path transform="translate(0,0)" fill="rgb(240,238,240)" d="M 1086.11 289.87 L 1088.77 289.82 C 1109.11 289.519 1104.18 301.229 1103.05 317.84 C 1097.43 317.28 1091.33 316.954 1085.66 316.539 C 1085.12 309.579 1085.86 297.272 1086.11 289.87 z"/>
<path transform="translate(0,0)" fill="rgb(240,238,240)" d="M 946.775 497.187 C 951.419 496.912 956.851 497.141 961.569 497.225 C 962.037 502.805 963.328 521.757 960.757 526.138 C 955.603 526.152 950.13 525.946 944.947 525.844 C 944.827 516.778 945.632 506.184 946.775 497.187 z"/>
<path transform="translate(0,0)" fill="rgb(240,238,240)" d="M 1058.47 124.859 C 1071.7 125.541 1072.53 141.148 1068.82 150.985 C 1065.62 153.923 1065.77 153.032 1060.51 153.613 C 1057.61 153.799 1056.94 153.474 1054.06 152.731 C 1049.47 147.94 1051.17 138.137 1053.04 132.521 C 1054.74 127.397 1053.84 127.466 1058.47 124.859 z"/>
<path transform="translate(0,0)" fill="rgb(240,238,240)" d="M 1052.13 289.22 C 1052.94 289.174 1053.74 289.135 1054.55 289.103 C 1072.57 288.427 1068.57 302.719 1068.5 316.737 C 1062.79 317.157 1056.83 317.258 1051.09 317.439 C 1050.73 308.915 1051.64 297.932 1052.13 289.22 z"/>
<path transform="translate(0,0)" fill="rgb(240,238,240)" d="M 946.597 290.472 C 951.473 290.306 956.87 290.542 961.789 290.65 C 961.315 299.509 961.393 308.045 960.555 316.975 C 955.618 317.239 950.049 317.001 945.059 316.903 C 945.016 308.967 945.778 298.322 946.597 290.472 z"/>
<path transform="translate(0,0)" fill="rgb(158,176,210)" d="M 1053.98 703.254 L 1056.38 704.017 C 1059.5 704.494 1065.19 705.207 1068.02 706.062 C 1064.45 716.08 1056.4 715.62 1047.5 714.29 C 1048.68 710 1051.09 706.52 1053.98 703.254 z"/>
<path transform="translate(0,0)" fill="rgb(208,213,223)" d="M 1053.98 703.254 L 1056.38 704.017 C 1056.59 707.82 1057.38 710.208 1055.83 713.14 C 1052.63 713.961 1050.73 714.044 1047.5 714.29 C 1048.68 710 1051.09 706.52 1053.98 703.254 z"/>
<path transform="translate(0,0)" fill="rgb(208,213,223)" d="M 1038.94 700.149 L 1039.57 701.224 C 1035.64 711.673 1030.55 716.53 1019.23 715.228 C 1017.84 712.977 1017.66 712.823 1017.18 710.274 C 1018.41 710.383 1019.85 710.511 1021.52 710.659 C 1029.85 705.668 1029.25 703.926 1038.94 700.149 z"/>
<path transform="translate(0,0)" fill="rgb(82,175,109)" d="M 1291.15 818.886 C 1294.45 819.842 1322.35 818.742 1328.5 818.722 L 1449.6 818.677 L 1795.01 818.576 C 1834.44 818.514 1873.87 817.995 1913.28 817.019 C 1923.27 816.735 1942.38 817.575 1951.14 816.173 L 1951.68 815.615 C 1953.37 813.874 1953.66 813.386 1955.78 812.373 C 1955.72 816.252 1955.24 822.437 1956.58 825.773 C 1956.92 834.448 1957.16 839.344 1955.59 848.095 C 1939.25 852.901 1903.6 850.575 1884.62 850.279 C 1865.21 850.016 1845.79 849.893 1826.37 849.909 L 1450.16 849.728 C 1434.11 849.818 1296.95 852.058 1292.87 849.923 C 1291.32 849.109 1290.96 846.315 1290.47 844.689 L 1291.19 841.03 C 1290.8 834.822 1291.12 825.349 1291.15 818.886 z"/>
<path transform="translate(0,0)" fill="rgb(82,175,109)" fill-opacity="0.00784314" d="M 1574.18 272.277 C 1582.6 271.965 1586.93 272.87 1595.03 274.373 L 1594.95 341.643 C 1594.93 353.501 1595.6 372.105 1593.52 383.061 C 1589.82 384.75 1586.72 385.23 1582.76 386.058 C 1573.87 386.238 1569.41 385.696 1560.54 384.524 C 1559.1 364.495 1560.45 341.559 1560.68 321.505 C 1560.85 306.084 1560.14 289.878 1560.81 274.635 C 1564.97 273.673 1569.9 272.981 1574.18 272.277 z"/>
<path transform="translate(0,0)" fill="rgb(82,175,109)" fill-opacity="0.027451" d="M 1621.82 496.695 C 1624.55 498.939 1623.79 498.246 1627.73 498.936 C 1627.83 495.041 1625.33 488.041 1628.73 485.661 C 1632.72 482.875 1646.36 479.723 1650.32 482.699 C 1649.64 483.69 1648.81 484.876 1647.86 486.255 C 1648.72 494.668 1650.05 507.636 1650.84 515.437 L 1651.73 515.44 C 1652.19 508.365 1652.1 502.47 1651.99 495.417 C 1653.82 499.33 1652.78 502.227 1653.77 506.312 C 1654.36 519.947 1654.08 536.542 1653.7 550.301 C 1651.27 556.488 1654.79 566.322 1652.49 571.825 C 1651.73 566.068 1653.37 563.327 1647.4 562.52 C 1640.57 555.134 1645.74 530.443 1643.68 526.32 C 1639.23 531.206 1643.83 552.704 1641.32 556.281 C 1636.38 550.93 1640.02 526.619 1638.46 518.676 C 1636.93 510.945 1641.9 491.007 1637.23 485.472 C 1622.17 488.754 1636.58 546.38 1629.71 555.013 C 1628.19 553.942 1626.51 552.469 1626.54 550.413 L 1625.65 550.948 L 1626.79 551.712 C 1624.29 551.317 1625.24 551.283 1622.53 553.202 C 1622.45 556.989 1622.5 563.544 1621.89 567.021 C 1620.87 559.941 1621.45 545.832 1621.65 538.424 C 1622.02 524.19 1622.16 510.913 1621.82 496.695 z M 1643 524.531 C 1643.07 520.289 1643.55 512.325 1642.4 508.585 L 1641 507.469 C 1640.93 511.711 1640.45 519.675 1641.6 523.415 L 1643 524.531 z M 1643.52 506.75 C 1644.06 501.154 1644.53 498.149 1643.72 492.635 L 1642 490.548 C 1641.95 494.253 1641.43 503.367 1642.64 506.322 L 1643.52 506.75 z"/>
<path transform="translate(0,0)" fill="rgb(70,167,100)" fill-opacity="0.0235294" d="M 1629.11 680.073 C 1625.96 692.549 1629.96 705.306 1629.23 716.522 C 1628.53 727.309 1631.26 780.735 1627.9 785.866 C 1625.48 786.742 1625.36 786.341 1624.03 788.036 C 1617.99 773.335 1624.29 704.346 1622.65 685.052 C 1622.45 682.778 1627.2 680.98 1629.11 680.073 z"/>
<path transform="translate(0,0)" fill="rgb(70,167,100)" fill-opacity="0.109804" d="M 1499.88 685.792 C 1500.32 697.098 1503.05 702.677 1503.26 708.385 C 1504.14 731.602 1510.09 762.481 1501.17 783.933 C 1500.52 785.512 1500.51 786.79 1500.49 788.408 C 1498.62 777.851 1498.22 695.627 1499.88 685.792 z"/>
<path transform="translate(0,0)" fill="rgb(82,175,109)" fill-opacity="0.172549" d="M 1498.87 501.696 L 1500.03 506.307 L 1502.44 507.2 C 1505.44 519.651 1504.73 553.339 1501.74 566.14 L 1501.48 565.161 C 1499.93 570.095 1500.03 572.005 1499.91 577.215 C 1498.22 569.662 1498.84 513.278 1498.87 501.696 z"/>
<path transform="translate(0,0)" fill="rgb(70,167,100)" d="M 91.4345 818.575 C 89.1436 802.305 91.1922 778.127 90.9613 760.974 C 90.5795 732.613 90.9871 704.041 90.7394 675.66 L 90.9411 475.461 C 90.9169 404.665 90.9882 333.787 91.0134 262.999 C 91.0336 206.34 88.2705 214.097 143.017 214.279 L 239.17 214.759 L 652.453 214.885 C 665.324 214.867 747.834 212.938 751.961 215.752 C 752.944 216.422 753.455 220.007 753.768 221.268 C 750.485 229.348 752.327 411.566 752.346 431.951 L 752.164 694.852 C 753.059 709.358 752.759 727.073 752.859 741.768 L 753.035 829.461 C 753.073 833.829 752.618 842.115 754.524 845.648 C 754.122 847.098 753.754 849.722 752.804 849.732 C 698.073 850.333 586.199 850.024 536.715 849.643 C 536.657 849.589 536.607 849.525 536.542 849.481 C 531.043 845.811 165.678 845.874 134.777 849.157 C 112.095 850.008 86.4547 858.411 91.8477 825.772 L 91.4345 818.575 z M 409.603 273.422 C 404.015 273.758 396.604 273.451 392.86 277.669 C 388.938 300.475 391.402 357.365 393.911 381.185 C 394.223 384.146 404.596 385.844 407.652 386 C 413.414 385.905 422.06 386.564 426.09 382.533 C 430.974 356.625 425.656 304.889 425.995 276.737 C 426.03 273.824 412.035 273.482 409.603 273.422 z M 284.867 791.953 C 293.566 792.134 306.843 793.321 306.771 781.318 C 306.577 748.893 308.528 714.715 306.762 682.432 C 300.668 680.394 295.495 678.479 288.992 679.461 C 271.289 680.33 270.351 681.259 270.921 699.873 C 271.485 718.289 268.251 736.076 274.964 753.666 C 278.483 763.816 259.494 790.055 284.867 791.953 z M 294.925 385.148 C 298.424 384.617 302.184 384.112 305.635 383.46 C 307.723 373.558 307.318 357.183 307.391 346.328 C 307.405 322.671 307.211 299.015 306.811 275.362 C 296.485 273.635 290.374 272.88 279.67 273.26 C 262.846 280.78 276.144 295.012 275.584 307.693 C 274.51 332.011 265.467 355.719 272.047 380.329 C 273.74 386.663 289.702 385.248 294.925 385.148 z M 211.132 275.749 C 210.479 294.102 208.175 369.723 211.42 382.949 C 220.183 384.527 226.023 384.999 235.025 384.982 C 238.627 384.51 240.903 384.64 243.584 382.302 C 246.673 374.852 245.149 289.297 245.173 275.101 C 236.275 273.922 230.993 273.57 221.778 274.589 C 218.366 274.94 214.48 275.254 211.132 275.749 z M 649.601 385.945 C 657.374 386.059 666.749 386.432 674.337 385.808 C 675.672 385.265 679.294 384.207 679.41 382.747 C 682.254 346.992 678.893 309.891 680.603 273.838 C 669.294 270.47 666.863 269.682 654.761 270.464 C 651.719 271.356 650.712 271.512 649.115 274.48 C 643.791 284.377 646.315 371.896 649.601 385.945 z M 488.606 679.571 C 476.034 676.396 472.461 676.616 459.458 677.501 C 451.342 693.127 458.45 748.771 455.955 768.207 C 453.19 789.755 467.241 792.582 484.78 786.417 C 486.869 784.888 488.657 784.055 488.618 781.057 C 488.191 748.162 490.722 712.127 488.606 679.571 z M 549.961 274.826 C 538.044 270.504 535.587 270.512 522.888 271.298 C 520.43 272.727 517.908 273.769 516.949 276.786 C 514.313 285.082 520.153 301.832 519.023 309.022 C 516.352 326.019 514.184 339.268 514.624 356.698 C 515.285 382.881 511.019 386.668 540.038 385.924 C 543.264 385.218 546.153 385.066 548.205 382.719 C 549.696 374.553 548.332 346.864 548.232 336.233 C 548.11 315.751 548.686 295.27 549.961 274.826 z M 392.627 684.844 C 391.816 690.984 391.919 697.173 391.811 703.354 C 391.424 725.485 390.92 747.625 391.302 769.76 C 391.144 774.151 391.27 779.056 391.289 783.494 C 404.524 790.868 414.413 790.532 427.901 783.863 C 425.267 757.745 427.782 710.927 427.529 682.553 C 416.237 679.255 401.725 675.382 392.627 684.844 z M 550.125 680.546 C 539.774 677.166 529.545 675.635 518.629 677.1 C 511.395 689.063 518.279 706.931 518.308 720.421 C 518.884 732.011 517.517 744.612 518.207 756.096 C 518.73 764.817 514.047 773.715 515.236 781.076 C 516.619 789.632 535.936 789.46 541.71 787.497 C 544.55 786.036 547.64 785.007 548.879 782.324 L 550.125 680.546 z M 426.866 477.429 C 418.774 475.207 400.09 472.052 395.073 480.058 C 388.383 490.732 391.193 523.67 392.324 535.798 C 393.818 551.475 388.637 567.113 394.297 581.338 C 401.013 586.928 424.396 587.838 424.904 581.971 C 427.391 553.281 430.702 505.318 426.866 477.429 z M 538.496 584.9 L 548.052 581.42 C 549.59 550.51 545.86 518.434 549.168 487.348 C 549.586 483.429 549.622 479.193 549.451 475.249 C 539.569 472.751 536.203 472.648 526.055 473.508 C 522.737 474.042 520.556 474.004 518.066 476.164 C 514.11 484.885 519.964 537.018 518.138 550.986 C 516.764 561.502 514.583 570.541 514.942 581.131 C 525.337 585.371 527.227 585.338 538.496 584.9 z M 153.862 274.858 C 154.351 296.785 154.558 318.717 154.482 340.649 C 154.309 353.914 150.077 371.348 152.896 382.229 C 155.539 384.421 159.307 384.839 162.749 385.118 C 169.042 385.303 177.671 386.519 182.273 382.278 C 185.107 374.521 184.696 357.149 184.117 348.519 C 182.564 325.406 186.034 298.072 183.64 275.471 C 177.834 273.967 175.749 273.253 169.833 273.439 C 164.988 273.802 158.53 274.098 153.862 274.858 z M 169.912 791.989 C 186.672 792.32 185.358 778.411 184.543 765.423 C 182.895 739.171 187.313 707.981 183.635 682.492 L 172.724 681.444 C 166.985 681.821 159.235 682.103 153.701 682.926 C 154.257 697.517 153.716 784.26 156.807 789.495 C 160.456 791.579 165.626 791.618 169.912 791.989 z M 680.116 477.337 C 673.861 476.118 665.756 474.224 659.541 475.382 C 655.762 475.7 652.287 475.483 649.435 477.693 C 646.406 489.05 645.251 574.935 650.093 586.284 C 654.685 590.081 662.848 589.101 668.885 588.998 C 672.946 587.751 676.456 586.755 680.342 585.003 C 679.909 549.116 679.834 513.225 680.116 477.337 z M 214.508 682.182 C 214.734 692.524 214.023 697.761 214.989 708.825 C 210.18 715.346 210.292 772.125 210.412 781.779 C 210.426 782.852 211.255 784.66 211.87 785.638 L 212.62 786.26 C 221.909 794.128 243.856 795.267 244.739 780.944 C 246.681 749.423 241.158 713.838 245.413 682.685 C 231.142 679.885 228.486 679.462 214.508 682.182 z M 679.971 749.235 C 680.116 740.028 681.457 681.932 678.96 677.955 C 672.91 675.088 656.899 675.861 649.836 675.906 C 649.079 678.349 647.493 684.07 647.425 686.308 C 646.93 702.686 644.691 774.238 648.954 785.393 C 655.164 792.949 673.659 788.349 681.219 784.651 C 680.72 776.004 679.999 766.585 679.967 757.996 C 680.3 755.632 680.048 751.743 679.971 749.235 z M 154.787 473.203 C 150.151 479.606 147.693 569.97 154.698 582.43 C 156.418 585.488 173.664 585.234 179.206 584.491 C 182.734 581.237 184.853 577.887 184.702 572.906 C 183.882 545.881 183.503 518.917 183.992 491.875 C 184.081 486.938 185.035 480.642 183.803 475.955 C 179.128 471.142 161.579 472.931 154.787 473.203 z M 466.258 473.537 C 463.305 473.588 460.734 473.209 458.462 474.838 C 453.61 485.138 455.29 572.105 459.026 585.469 C 464.682 585.497 471.169 585.687 476.752 585.436 C 480.626 584.688 483.93 584.051 487.746 583 C 489.497 568.617 489.099 551.219 489.116 536.564 L 488.97 474.213 C 480.884 473.594 474.371 472.919 466.258 473.537 z M 484.753 385.442 C 486.349 384.435 488.224 383.765 488.318 381.734 C 489.92 347.056 487.28 308.922 489.289 274.459 C 476.32 271.496 473.111 271.395 459.744 272.158 C 454.01 279.475 456.844 354.02 455.519 369.001 C 455.289 371.601 456.289 381.463 456.665 384.617 C 466.884 386.178 474.339 386.458 484.753 385.442 z M 307.283 474.228 C 299.835 473.007 293.703 471.785 286.082 472.363 C 282.898 472.672 274.123 473.058 272.594 476.414 C 267.01 488.987 274.039 504.825 274.655 517.709 C 275.323 531.677 274.37 546.946 273.495 560.936 C 272.126 582.84 269.637 585.18 292.849 585.088 C 296.312 584.846 301.307 584.961 303.868 582.231 C 309.977 575.719 307.03 489.816 307.283 474.228 z M 220.537 473.458 C 217.172 473.969 214.769 473.876 212.44 476.173 C 207.36 490.47 211.848 547.231 210.174 565.203 C 209.669 570.628 211.966 582.505 218.647 583.487 C 224.059 584.282 228.984 584.468 234.617 584.549 C 237.984 583.887 240.161 583.798 242.618 581.341 C 248.304 570.465 243.963 493.925 243.839 477.484 C 243.798 472.069 224.694 473.227 220.537 473.458 z"/>
<path transform="translate(0,0)" fill="rgb(82,175,109)" d="M 91.8477 825.772 L 469.421 827.815 C 555.101 827.745 640.903 823.032 726.583 827.629 C 733.436 827.997 747.15 827.351 753.035 829.461 C 753.073 833.829 752.618 842.115 754.524 845.648 C 754.122 847.098 753.754 849.722 752.804 849.732 C 698.073 850.333 586.199 850.024 536.715 849.643 C 536.657 849.589 536.607 849.525 536.542 849.481 C 531.043 845.811 165.678 845.874 134.777 849.157 C 112.095 850.008 86.4547 858.411 91.8477 825.772 z"/>
<path transform="translate(0,0)" fill="rgb(123,199,141)" d="M 752.164 694.852 C 753.059 709.358 752.759 727.073 752.859 741.768 L 753.035 829.461 C 747.15 827.351 733.436 827.997 726.583 827.629 C 640.903 823.032 555.101 827.745 469.421 827.815 L 91.8477 825.772 L 91.4345 818.575 C 106.054 819.977 133.154 819.158 149.129 819.298 C 195.721 819.752 242.316 819.701 288.907 819.145 L 523.625 819.291 C 598.466 819.033 677.38 817.775 752.013 820.333 L 751.801 740.117 C 751.763 725.857 751.258 708.794 752.164 694.852 z"/>
<path transform="translate(0,0)" fill="rgb(123,199,141)" fill-opacity="0.0235294" d="M 392.324 535.798 L 392.885 534.9 C 394.982 531.488 395.373 530.783 395.142 526.718 L 396.088 525.193 L 397.397 525.087 C 399.091 534.646 396.014 559.352 397.992 568.26 C 400.114 568.641 402.337 567.37 402.694 567.46 C 407.542 568.681 413.604 571.311 418.109 573.201 L 418.681 574.661 C 414.322 577.015 403.619 573.934 398.451 573.558 C 397.924 574.194 397.397 574.83 396.87 575.465 C 396.529 579.571 397.145 578 394.297 581.338 C 388.637 567.113 393.818 551.475 392.324 535.798 z"/>
<path transform="translate(0,0)" fill="rgb(82,175,109)" fill-opacity="0.00784314" d="M 211.87 785.638 C 211.255 784.66 210.426 782.852 210.412 781.779 C 210.292 772.125 210.18 715.346 214.989 708.825 C 217.018 731.798 214.109 756.734 215.17 779.849 C 215.263 781.889 213.139 784.22 211.87 785.638 z"/>
<path transform="translate(0,0)" fill="rgb(82,175,109)" fill-opacity="0.25098" d="M 391.302 769.76 C 390.92 747.625 391.424 725.485 391.811 703.354 C 391.919 697.173 391.816 690.984 392.627 684.844 C 392.927 689.703 393.166 694.251 393.255 699.118 L 393.396 700.955 L 394.228 701.123 L 397.083 695.985 C 397.233 704.393 398.073 727.145 394.718 734.697 L 394.219 732.419 C 393.073 738.711 391.765 768.973 391.302 769.76 z"/>
<path transform="translate(0,0)" fill="rgb(82,175,109)" fill-opacity="0.054902" d="M 393.255 699.118 C 394.147 695.916 393.835 690.656 396.751 688.659 C 397.767 691.506 397.369 693.003 397.083 695.985 L 394.228 701.123 L 393.396 700.955 L 393.255 699.118 z"/>
<path transform="translate(0,0)" fill="rgb(242,56,40)" d="M 1150.81 894.914 C 1160.89 894.653 1173.01 890.213 1185.19 889.796 L 1184.15 1046 C 1184.06 1065.31 1182.88 1117.58 1187.24 1135.36 C 1190.36 1136.37 1195.38 1139.29 1195.87 1142.53 C 1203.87 1196.25 1190.85 1191.5 1144.12 1191.25 C 1135.57 1191.2 1106.86 1192.8 1104.65 1180.87 C 1101.55 1164.16 1098.42 1140.58 1118.26 1133.94 C 1116.98 1069.39 1118.38 1005.02 1117.66 940.443 C 1117.52 927.802 1116.21 909.087 1120.08 897.344 C 1124.44 897.783 1142.63 894.741 1150.81 894.914 z"/>
<path transform="translate(0,0)" fill="rgb(113,119,155)" d="M 1118.26 1133.94 C 1122.27 1152.46 1133.01 1154.99 1150.66 1156.53 C 1167.65 1158.01 1186.2 1156.7 1187.24 1135.36 C 1190.36 1136.37 1195.38 1139.29 1195.87 1142.53 C 1203.87 1196.25 1190.85 1191.5 1144.12 1191.25 C 1135.57 1191.2 1106.86 1192.8 1104.65 1180.87 C 1101.55 1164.16 1098.42 1140.58 1118.26 1133.94 z"/>
<path transform="translate(0,0)" fill="rgb(242,56,40)" d="M 863.128 889.428 C 877.274 891.746 897.029 894.959 911.299 893.186 C 915.644 895.046 921.247 894.781 926.072 894.892 C 925.786 951.102 926.007 1007.31 926.735 1063.52 C 927.085 1084.16 926.356 1105.45 927.474 1126.07 C 927.707 1130.37 928.747 1133.46 931.456 1136.86 C 935.353 1137.85 940.039 1140.49 943.723 1142.38 C 944.091 1157.5 944.191 1169.97 942.656 1184.98 C 924.429 1194.88 894.47 1190.84 873.793 1191.48 C 842.483 1192.45 847.472 1168.36 848.354 1146.07 C 851.901 1141.22 858.289 1135.63 862.923 1131.66 C 862.968 1128.36 862.757 1126.85 862.268 1123.56 C 863.586 1109.38 862.97 1094.14 862.125 1079.97 C 865.103 1058.38 863.811 1027.04 863.631 1004.57 L 863.128 889.428 z"/>
<path transform="translate(0,0)" fill="rgb(113,119,155)" d="M 862.923 1131.66 C 863.135 1141.18 865.485 1147.44 868.597 1156.26 C 879.117 1157.35 889.978 1157.65 900.543 1157.65 C 918.965 1157.64 928.994 1156.88 931.456 1136.86 C 935.353 1137.85 940.039 1140.49 943.723 1142.38 C 944.091 1157.5 944.191 1169.97 942.656 1184.98 C 924.429 1194.88 894.47 1190.84 873.793 1191.48 C 842.483 1192.45 847.472 1168.36 848.354 1146.07 C 851.901 1141.22 858.289 1135.63 862.923 1131.66 z"/>
<path transform="translate(0,0)" fill="rgb(242,56,40)" d="M 777.485 862.21 C 794.08 866.692 829.583 877.828 845.303 884.132 C 843.707 894.358 845.377 923.322 846.022 933.825 C 846.955 949.04 843.057 1058.5 846.191 1063.08 L 846.305 1065.93 C 851.848 1077.83 861.691 1090.83 857.285 1106.16 C 856.525 1108.81 854.898 1110.96 852.315 1111.75 C 837.055 1116.43 786.257 1115.68 772.272 1113.62 C 767.307 1111.34 764.036 1108.19 763.145 1102.7 C 760.461 1086.17 757.835 1066.55 777.753 1061.95 C 778.846 1012.4 779.142 962.841 778.641 913.283 C 778.487 896.591 777.34 878.563 777.485 862.21 z"/>
<path transform="translate(0,0)" fill="rgb(113,119,155)" d="M 772.272 1113.62 C 767.307 1111.34 764.036 1108.19 763.145 1102.7 C 760.461 1086.17 757.835 1066.55 777.753 1061.95 C 778.933 1067.81 780.677 1078.12 786.392 1081.38 C 797.956 1087.99 817.723 1088.92 830.738 1086.68 C 841.596 1084.81 845.525 1075.61 846.305 1065.93 C 851.848 1077.83 861.691 1090.83 857.285 1106.16 C 856.525 1108.81 854.898 1110.96 852.315 1111.75 C 837.055 1116.43 786.257 1115.68 772.272 1113.62 z"/>
<path transform="translate(0,0)" fill="rgb(242,56,40)" d="M 1268.97 860.493 C 1272.13 871.339 1271.72 881.066 1270.8 892.163 C 1269.59 906.75 1271.4 921.116 1271.58 935.74 C 1271.93 969.092 1271.24 1002.45 1269.51 1035.75 C 1269.24 1040.64 1270.4 1045.07 1268.84 1049.11 C 1274.1 1051.2 1277.28 1052.7 1279.85 1058.4 C 1284.19 1068.07 1282.25 1092.55 1280.48 1102.97 C 1260.8 1105.8 1190.97 1113.24 1185.52 1086.26 C 1184.21 1079.78 1193.53 1066.23 1197.46 1060.58 C 1199.72 1056.3 1205.14 1047.68 1205.38 1043.48 C 1206.61 1022.58 1206 999.017 1206.02 978.142 L 1206.08 919.275 C 1206.08 909.295 1206.56 892.27 1204.92 883.081 C 1220.01 876.42 1234.93 871.559 1250.5 866.319 C 1255.41 864.666 1265.08 862.329 1268.97 860.493 z"/>
<path transform="translate(0,0)" fill="rgb(113,119,155)" d="M 1268.84 1049.11 C 1274.1 1051.2 1277.28 1052.7 1279.85 1058.4 C 1284.19 1068.07 1282.25 1092.55 1280.48 1102.97 C 1260.8 1105.8 1190.97 1113.24 1185.52 1086.26 C 1184.21 1079.78 1193.53 1066.23 1197.46 1060.58 C 1197.98 1062.51 1198.69 1064.4 1199.58 1066.2 C 1200.63 1068.36 1203.34 1071.84 1206.29 1072.33 C 1219.84 1074.59 1247.69 1076.9 1260.12 1072.13 C 1265.21 1070.17 1267.86 1054.1 1268.84 1049.11 z"/>
<path transform="translate(0,0)" fill="rgb(70,167,100)" fill-opacity="0.984314" d="M 134.777 849.157 C 165.678 845.874 531.043 845.811 536.542 849.481 C 536.607 849.525 536.657 849.589 536.715 849.643 L 276.163 849.474 L 180.873 849.722 C 166.936 849.688 148.418 850.154 134.777 849.157 z"/>
</svg>